<svg xmlns="http://www.w3.org/2000/svg" width="48" height="48" viewBox="0 0 48 48" fill="none">
  <path d="M37.6143 6.75288C38.6188 5.74916 40.2421 5.74916 41.2466 6.75288C42.2511 7.7574 42.2511 9.38553 41.2466 10.39L27.6414 23.9286L41.2466 37.6142C42.2511 38.6187 42.2511 40.242 41.2466 41.2465C40.2421 42.251 38.6188 42.251 37.6143 41.2465L23.9287 27.6413L10.3902 41.2465C9.38564 42.251 7.75751 42.251 6.75315 41.2465C5.74895 40.242 5.74895 38.6187 6.75315 37.6142L20.3606 23.9286L6.75315 10.39C5.74895 9.38553 5.74895 7.7574 6.75315 6.75288C7.75751 5.74916 9.38564 5.74916 10.3902 6.75288L23.9287 20.3605L37.6143 6.75288Z" fill="#E53935"/>
</svg>