<svg xmlns="http://www.w3.org/2000/svg" width="48" height="48" viewBox="0 0 48 48" fill="none">
<path d="M25.125 12.8379C24.5836 13.3688 23.6695 15.2672 23.4797 18.375H26.7759C26.5875 15.2672 25.6734 13.3688 25.125 12.8379ZM31.7625 18.375C31.3934 16.1777 29.9611 14.358 28.0184 13.4264C28.5562 14.7609 28.9078 16.4766 29.0133 18.375H31.7625ZM31.7625 20.625H29.0112C28.9057 22.5234 28.5541 24.2377 28.0184 25.5736C29.9625 24.6398 31.3898 22.8258 31.7625 20.625ZM26.7703 20.625H23.4727C23.6695 23.7398 24.5836 25.6383 25.125 26.1656C25.6734 25.6383 26.5875 23.7398 26.7703 20.625ZM22.2352 13.425C20.2945 14.3602 18.8602 16.1812 18.4875 18.375H21.2388C21.3492 16.4766 21.7008 14.7609 22.2352 13.425ZM39.75 29.625V9.375C39.75 7.51102 38.2383 6 36.375 6H15C11.272 6 8.25 9.02203 8.25 12.75V35.25C8.25 38.978 11.272 42 15 42H37.5C38.7424 42 39.75 40.9924 39.75 39.75C39.75 38.9259 39.2854 38.2369 38.625 37.8445V32.1239C39.3141 31.5094 39.75 30.6234 39.75 29.625ZM25.125 10.5C30.0996 10.5 34.125 14.5254 34.125 19.5C34.125 24.4746 30.0996 28.5 25.125 28.5C20.1504 28.5 16.125 24.4746 16.125 19.5C16.125 14.5254 20.1539 10.5 25.125 10.5ZM35.25 37.5H15C13.7576 37.5 12.75 36.4924 12.75 35.25C12.75 34.0076 13.7576 33 15 33H35.25V37.5ZM22.2352 25.575C21.7008 24.2391 21.3492 22.5234 21.2438 20.625H18.4875C18.8602 22.8258 20.2945 24.6398 22.2352 25.575Z" fill="#404040"/>
</svg>