<svg xmlns="http://www.w3.org/2000/svg" width="16" height="16" viewBox="0 0 16 16" fill="none">
  <path d="M12.875 4.25H8.375L6.875 2.75H3.125C2.50391 2.75 2 3.25391 2 3.875V12.125C2 12.7461 2.50391 13.25 3.125 13.25H12.875C13.4961 13.25 14 12.7461 14 12.125V5.375C14 4.75391 13.4961 4.25 12.875 4.25ZM4.97891 6.5C5.39305 6.5 5.72891 6.83586 5.72891 7.25C5.72891 7.66414 5.39305 8 4.97891 8C4.56477 8 4.22891 7.66414 4.22891 7.25C4.22891 6.83586 4.58516 6.5 4.97891 6.5ZM11.7055 11.5531C11.6398 11.675 11.5133 11.75 11.375 11.75H4.625C4.48388 11.75 4.35477 11.6708 4.29078 11.5449C4.2268 11.4191 4.23884 11.2681 4.32202 11.154L5.96265 8.90398C6.03359 8.80625 6.14609 8.75 6.24453 8.75C6.34297 8.75 6.49766 8.80625 6.56797 8.90469L7.0918 9.62328L8.56227 7.41758C8.61172 7.31328 8.72891 7.25 8.87422 7.25C9.01953 7.25 9.1168 7.31262 9.18617 7.41699L11.687 11.167C11.7641 11.2812 11.7711 11.4289 11.7055 11.5531Z" fill="#404040"/>
</svg>