<svg xmlns="http://www.w3.org/2000/svg" width="19" height="19" viewBox="0 0 19 19" fill="none">
<path fill-rule="evenodd" clip-rule="evenodd" d="M19 9.71615C19 9.0425 18.9383 8.39477 18.8237 7.77295H9.69385V11.4478H14.9109C14.6862 12.6353 14.0032 13.6414 12.9765 14.315V16.6987H16.1094C17.9425 15.0448 19 12.6094 19 9.71615Z" fill="#4285F4"/>
<path fill-rule="evenodd" clip-rule="evenodd" d="M9.69405 19C12.3114 19 14.5057 18.1493 16.1096 16.6984L12.9768 14.3147C12.1087 14.8847 10.9983 15.2216 9.69405 15.2216C7.16924 15.2216 5.03218 13.5504 4.26989 11.3049H1.03125V13.7663C2.62633 16.8711 5.90463 19 9.69405 19Z" fill="#34A853"/>
<path fill-rule="evenodd" clip-rule="evenodd" d="M4.26971 11.3051C4.07583 10.735 3.96568 10.1262 3.96568 9.50004C3.96568 8.8739 4.07583 8.26503 4.26971 7.69503V5.23364H1.03108C0.374536 6.51615 0 7.96707 0 9.50004C0 11.033 0.374536 12.4839 1.03108 13.7664L4.26971 11.3051Z" fill="#FBBC05"/>
<path fill-rule="evenodd" clip-rule="evenodd" d="M9.69405 3.77844C11.1173 3.77844 12.3951 4.25776 13.3998 5.19913L16.1801 2.47434C14.5013 0.941371 12.307 0 9.69405 0C5.90463 0 2.62633 2.12888 1.03125 5.23368L4.26989 7.69506C5.03218 5.44959 7.16924 3.77844 9.69405 3.77844Z" fill="#EA4335"/>
</svg>