            <svg
              xmlns="http://www.w3.org/2000/svg"
              width="32"
              height="32"
              viewBox="0 0 32 32"
              fill="none"
            >
              <path
                d="M10.24 1.91992C5.65277 1.91992 1.91998 5.65271 1.91998 10.2399V21.7599C1.91998 26.3471 5.65277 30.0799 10.24 30.0799H21.76C26.3472 30.0799 30.08 26.3471 30.08 21.7599V10.2399C30.08 5.65271 26.3472 1.91992 21.76 1.91992H10.24ZM10.24 3.19992H21.76C25.6553 3.19992 28.8 6.34457 28.8 10.2399V21.7599C28.8 25.6553 25.6553 28.7999 21.76 28.7999H10.24C6.34463 28.7999 3.19998 25.6553 3.19998 21.7599V10.2399C3.19998 6.34457 6.34463 3.19992 10.24 3.19992ZM23.68 7.03992C23.3405 7.03992 23.0149 7.17478 22.7749 7.41483C22.5348 7.65487 22.4 7.98044 22.4 8.31992C22.4 8.6594 22.5348 8.98497 22.7749 9.22502C23.0149 9.46506 23.3405 9.59992 23.68 9.59992C24.0195 9.59992 24.345 9.46506 24.5851 9.22502C24.8251 8.98497 24.96 8.6594 24.96 8.31992C24.96 7.98044 24.8251 7.65487 24.5851 7.41483C24.345 7.17478 24.0195 7.03992 23.68 7.03992ZM16 8.95992C12.1195 8.95992 8.95998 12.1194 8.95998 15.9999C8.95998 19.8804 12.1195 23.0399 16 23.0399C19.8805 23.0399 23.04 19.8804 23.04 15.9999C23.04 12.1194 19.8805 8.95992 16 8.95992ZM16 10.2399C19.1887 10.2399 21.76 12.8112 21.76 15.9999C21.76 19.1887 19.1887 21.7599 16 21.7599C12.8112 21.7599 10.24 19.1887 10.24 15.9999C10.24 12.8112 12.8112 10.2399 16 10.2399Z"
                fill="#404040"
              />
            </svg>