<svg xmlns="http://www.w3.org/2000/svg" width="28" height="29" viewBox="0 0 28 29" fill="none">
  <path d="M14.4932 5.5C9.23804 5.5 5 9.16793 5 13.6208C5 16.5112 6.76303 19.0421 9.40757 20.4873L8.51249 24.1039C8.49562 24.1581 8.49302 24.2163 8.505 24.272C8.51697 24.3277 8.54305 24.3787 8.5803 24.4193C8.63462 24.4711 8.70452 24.4998 8.77695 24.5C8.837 24.4948 8.89398 24.4691 8.93968 24.4267L12.7912 21.617C13.3598 21.7019 13.9329 21.746 14.5068 21.749C19.7552 21.749 24 18.0811 24 13.6208C24 9.16059 19.7416 5.5 14.4932 5.5Z" fill="#423630"/>
</svg>