<svg xmlns="http://www.w3.org/2000/svg" width="48" height="48" viewBox="0 0 48 48" fill="none">
  <path d="M15.2122 16.5594C18.5244 13.2479 24.0288 13.2479 27.341 16.5594C30.3195 19.538 30.7604 24.2858 28.312 27.7112L28.2465 27.8065C27.6329 28.6584 26.4414 28.8609 25.5896 28.2473C24.7317 27.6338 24.5292 26.4423 25.1428 25.5905L25.2083 25.4951C26.5725 23.5829 26.358 20.9677 24.696 19.3057C22.8255 17.4351 19.7814 17.4351 17.9049 19.3057L11.2209 25.9955C9.34385 27.8184 9.34385 30.9102 11.2209 32.7867C12.877 34.4487 15.4982 34.6632 17.4045 33.299L17.4998 33.1799C18.3576 32.6199 19.549 32.8165 20.1567 33.6743C20.7702 34.5321 20.5737 35.7236 19.7158 36.3371L19.6205 36.4027C16.1415 38.8511 11.5009 38.4579 8.52295 35.4853C5.15902 32.1195 5.15902 26.6627 8.52295 23.3029L15.2122 16.5594ZM32.7858 31.3868C29.42 34.7525 23.9692 34.7525 20.6034 31.3868C17.6249 28.4082 17.2377 23.714 19.686 20.2886L19.7516 20.1933C20.3115 19.3414 21.503 19.1389 22.4085 19.7525C23.2663 20.3124 23.4688 21.5039 22.8552 22.4093L22.7897 22.5047C21.4255 24.3633 21.64 27.0321 23.302 28.6941C25.1726 30.5647 28.2167 30.5647 30.0932 28.6941L36.7771 22.0043C38.6536 20.1278 38.6536 17.036 36.7771 15.2131C35.121 13.5529 32.4999 13.336 30.5936 14.7008L30.4983 14.7663C29.6404 15.3799 28.449 15.1297 27.8414 14.3243C27.2278 13.4677 27.4244 12.2768 28.2822 11.665L28.3775 11.5983C31.8029 9.15059 36.4971 9.53894 39.4757 12.5169C42.8414 15.8803 42.8414 21.3371 39.4757 24.6969L32.7858 31.3868Z" fill="#404040"/>
</svg>