<svg xmlns="http://www.w3.org/2000/svg" width="16" height="16" viewBox="0 0 16 16" fill="none">
<path d="M8 2.66663H10.3333C10.5167 2.66663 10.6667 2.81588 10.6667 2.99996V3.99996C10.6667 4.18413 10.5167 4.33329 10.3333 4.33329H8.66667V4.65683L10.5479 5.99996H12.6667C13.4021 5.99996 14 6.59788 14 7.33329V12C14 12.7354 13.4021 13.3333 12.6667 13.3333H9V11C9 10.4479 8.55208 9.99996 8 9.99996C7.44792 9.99996 7 10.4479 7 11V13.3333H3.33333C2.59688 13.3333 2 12.7354 2 12V7.33329C2 6.59788 2.59688 5.99996 3.33333 5.99996H5.45208L7.33333 4.65683V3.33329C7.33333 2.96517 7.63125 2.66663 8 2.66663ZM8 6.66663C7.44792 6.66663 7 7.11454 7 7.66663C7 8.21871 7.44792 8.66663 8 8.66663C8.55208 8.66663 9 8.21871 9 7.66663C9 7.11454 8.55208 6.66663 8 6.66663ZM3.66667 7.33329C3.4825 7.33329 3.33333 7.48329 3.33333 7.66663V8.99996C3.33333 9.18329 3.4825 9.33329 3.66667 9.33329H4.33333C4.51667 9.33329 4.66667 9.18329 4.66667 8.99996V7.66663C4.66667 7.48329 4.51667 7.33329 4.33333 7.33329H3.66667ZM11.3333 8.99996C11.3333 9.18329 11.4833 9.33329 11.6667 9.33329H12.3333C12.5167 9.33329 12.6667 9.18329 12.6667 8.99996V7.66663C12.6667 7.48329 12.5167 7.33329 12.3333 7.33329H11.6667C11.4833 7.33329 11.3333 7.48329 11.3333 7.66663V8.99996ZM3.66667 9.99996C3.4825 9.99996 3.33333 10.15 3.33333 10.3333V11.6666C3.33333 11.85 3.4825 12 3.66667 12H4.33333C4.51667 12 4.66667 11.85 4.66667 11.6666V10.3333C4.66667 10.15 4.51667 9.99996 4.33333 9.99996H3.66667ZM11.6667 9.99996C11.4833 9.99996 11.3333 10.15 11.3333 10.3333V11.6666C11.3333 11.85 11.4833 12 11.6667 12H12.3333C12.5167 12 12.6667 11.85 12.6667 11.6666V10.3333C12.6667 10.15 12.5167 9.99996 12.3333 9.99996H11.6667Z" fill="#404040"/>
</svg>