<svg xmlns="http://www.w3.org/2000/svg" width="48" height="48" viewBox="0 0 48 48" fill="none">
  <path d="M21.6474 26.7341H15.8715C10.4208 26.7341 6 31.1544 6 36.6056C6 37.6993 6.88405 38.5822 7.9743 38.5822H29.5458C30.636 38.5822 31.5189 37.6993 31.5189 36.6056C31.5189 31.1544 27.0987 26.7341 21.6474 26.7341ZM18.7595 24C22.7867 24 26.0506 20.7355 26.0506 16.7088C26.0506 12.6822 22.7867 9.41772 18.7595 9.41772C14.7323 9.41772 11.4683 12.6822 11.4683 16.7088C11.4683 20.7355 14.7323 24 18.7595 24ZM38.9183 22.1259L41.5972 19.447C42.1312 18.913 42.1312 18.048 41.5972 17.5137C41.0632 16.9794 40.1982 16.9797 39.6639 17.5137L36.9873 20.2462L34.3084 17.5673C33.7743 17.0332 32.9094 17.0332 32.3751 17.5673C31.8408 18.1013 31.8411 18.9663 32.3751 19.5006L35.054 22.1795L32.3751 24.8584C31.8411 25.3924 31.8411 26.2574 32.3751 26.7917C32.909 27.3256 33.7741 27.326 34.3084 26.7917L36.9873 24.1082L39.6662 26.7871C40.2001 27.321 41.0652 27.3215 41.5995 26.7871C42.1335 26.2531 42.1335 25.3881 41.5995 24.8538L38.9183 22.1259Z" fill="black"/>
</svg>