<svg xmlns="http://www.w3.org/2000/svg" width="16" height="17" viewBox="0 0 16 17" fill="none">
  <path d="M7.15078 9.4H5.24948C3.45523 9.4 2 10.855 2 12.6495C2 13.0095 2.29101 13.3001 2.6499 13.3001H9.74961C10.1096 13.3001 10.4003 13.0095 10.4003 12.6495C10.4003 10.855 8.94522 9.4 7.15078 9.4ZM6.20013 8.49998C7.5258 8.49998 8.6002 7.42538 8.6002 6.0999C8.6002 4.77442 7.5258 3.69983 6.20013 3.69983C4.87446 3.69983 3.80006 4.77442 3.80006 6.0999C3.80006 7.42538 4.87446 8.49998 6.20013 8.49998ZM13.856 6.21991C13.6741 6.05115 13.3889 6.06141 13.22 6.24364L11.5877 8.00151L10.8679 7.28168C10.6921 7.10589 10.4074 7.10589 10.2315 7.28168C10.0556 7.45746 10.0557 7.74219 10.2315 7.91807L11.2815 8.9681C11.3659 9.05312 11.4803 9.1 11.6003 9.1H11.6085C11.731 9.09765 11.847 9.04579 11.9303 8.95614L13.8803 6.85608C14.0491 6.67367 14.0379 6.38866 13.856 6.21991Z" fill="#525252"/>
</svg>